<?xml version="1.0" encoding="utf-8"?>
<!-- Generator: Adobe Illustrator 19.1.0, SVG Export Plug-In . SVG Version: 6.00 Build 0)  -->
<svg version="1.1" id="圖層_1" xmlns="http://www.w3.org/2000/svg" xmlns:xlink="http://www.w3.org/1999/xlink" x="0px" y="0px"
	 viewBox="0 0 51 57" style="enable-background:new 0 0 51 57;" xml:space="preserve">
<path style="fill:#FFFFFF;stroke:#FFFFFF;stroke-width:0.75;stroke-miterlimit:10;" d="M27.6,49.8h-0.7c-1.1,0-2-0.9-2-2V9.5
	c0-1.1,0.9-2,2-2h0.7c1.1,0,2,0.9,2,2v38.4C29.6,48.9,28.7,49.8,27.6,49.8z"/>
<path style="fill:#FFFFFF;stroke:#FFFFFF;stroke-width:0.75;stroke-miterlimit:10;" d="M28.7,50.5L28.7,50.5c-1,0.7-2.5,0.5-3.3-0.3
	l-16.6-18c-0.8-0.9-0.6-2.1,0.4-2.8l0,0c1-0.7,2.5-0.5,3.3,0.3l16.6,18C29.9,48.6,29.7,49.9,28.7,50.5z"/>
<path style="fill:#FFFFFF;stroke:#FFFFFF;stroke-width:0.75;stroke-miterlimit:10;" d="M25.8,50.5L25.8,50.5c1,0.7,2.5,0.5,3.3-0.3
	l16.6-18c0.8-0.9,0.6-2.1-0.4-2.8l0,0c-1-0.7-2.5-0.5-3.3,0.3l-16.6,18C24.6,48.6,24.8,49.9,25.8,50.5z"/>
</svg>
