<svg xmlns="http://www.w3.org/2000/svg" viewBox="0 0 51 57"><path d="M27.6 49.8h-.7c-1.1 0-2-.9-2-2V9.5c0-1.1.9-2 2-2h.7c1.1 0 2 .9 2 2v38.4c0 1-.9 1.9-2 1.9z" fill="#fff" stroke="#fff" stroke-width=".75" stroke-miterlimit="10"/><path d="M28.7 50.5c-1 .7-2.5.5-3.3-.3l-16.6-18c-.8-.9-.6-2.1.4-2.8 1-.7 2.5-.5 3.3.3l16.6 18c.8.9.6 2.2-.4 2.8z" fill="#fff" stroke="#fff" stroke-width=".75" stroke-miterlimit="10"/><path d="M25.8 50.5c1 .7 2.5.5 3.3-.3l16.6-18c.8-.9.6-2.1-.4-2.8-1-.7-2.5-.5-3.3.3l-16.6 18c-.8.9-.6 2.2.4 2.8z" fill="#fff" stroke="#fff" stroke-width=".75" stroke-miterlimit="10"/></svg>